Coordinates
version=1
nRows=6
nColumns=34
inDegrees=yes

Units are S.I. units (second, meters, Newtons, ...)
Angles are in degrees.

endheader
time	pelvis_tilt	pelvis_list	pelvis_rotation	pelvis_tx	pelvis_ty	pelvis_tz	hip_flexion_r	hip_adduction_r	hip_rotation_r	knee_angle_r	ankle_angle_r	subtalar_angle_r	mtp_angle_r	hip_flexion_l	hip_adduction_l	hip_rotation_l	knee_angle_l	socket_flexion	socket_adduction	socket_rotation	socket_tx	socket_ty	socket_tz	pros_ankle_rx	pros_ankle_ry	pros_ankle_rz	pros_ankle_tx	pros_ankle_ty	pros_ankle_tz	foot_flex	lumbar_extension	lumbar_bending	lumbar_rotation
      0.00000000	     -0.29067248	     -8.79955989	      4.68562425	     -0.77514255	      1.03243368	      0.38637568	    -22.43807619	     12.67892512	    -13.26248979	      2.12960008	      3.13831862	     24.21444465	     29.89908562	     26.63431565	     -7.10958833	      7.25140205	     -7.59990043	      0.00000000	      0.00000000	      0.00000000	      0.00000000	      0.00253478	      0.00000000	      0.00000000	      0.00000000	      0.00000000	      0.00000000	      0.00000000	      0.00000000	      4.87834451	    -10.62014461	      4.52281181	    -16.46304843
      0.00416667	     -0.29566410	     -8.77916155	      4.56546615	     -0.76997209	      1.03150938	      0.38626768	    -22.67360079	     12.58586309	    -13.23536798	      1.98567853	      3.12995734	     24.22642202	     29.90516633	     26.67699388	     -7.09523086	      7.28712531	     -8.04704043	      0.00000000	      0.00000000	      0.00000000	      0.00000000	      0.00179585	      0.00000000	      0.00000000	      0.00000000	      0.00000000	      0.00000000	      0.00000000	      0.00000000	      4.43450432	    -10.56393275	      4.46696038	    -16.45516769
      0.00833333	     -0.31939164	     -8.75617357	      4.51382044	     -0.76468965	      1.03055845	      0.38607538	    -22.86741698	     12.51943829	    -13.13246796	      1.79263528	      3.14787441	     24.26369045	     29.93413203	     26.76762815	     -7.03475654	      7.30804628	     -8.51870652	      0.00000000	      0.00000000	      0.00000000	      0.00000000	      0.00091301	      0.00000000	      0.00000000	      0.00000000	      0.00000000	      0.00000000	      0.00000000	      0.00000000	      3.76735703	    -10.58520874	      4.30534612	    -16.40722392
      0.01250000	     -0.32622726	     -8.72854764	      4.41403634	     -0.75915983	      1.02960205	      0.38592675	    -23.09197717	     12.42308407	    -13.07118465	      1.59987991	      3.15388933	     24.28231586	     29.96085359	     26.82762159	     -6.99895261	      7.32198053	     -9.01983340	      0.00000000	      0.00000000	      0.00000000	      0.00000000	      0.00007065	      0.00000000	      0.00000000	      0.00000000	      0.00000000	      0.00000000	      0.00000000	      0.00000000	      3.23611227	    -10.55053282	      4.19480405	    -16.36905917
      0.01666667	     -0.35296908	     -8.69415469	      4.30453432	     -0.75352631	      1.02863433	      0.38577294	    -23.29130988	     12.30811572	    -12.99382634	      1.38215196	      3.16761957	     24.30202999	     30.00421902	     26.90493641	     -6.95921496	      7.34443239	     -9.53248413	      0.00000000	      0.00000000	      0.00000000	      0.00000000	     -0.00076837	      0.00000000	      0.00000000	      0.00000000	      0.00000000	      0.00000000	      0.00000000	      0.00000000	      2.65529244	    -10.54889476	      4.04288148	    -16.31114056
      0.02083333	     -0.36442952	     -8.65731496	      4.21786472	     -0.74773034	      1.02767554	      0.38556283	    -23.49752918	     12.19654604	    -12.91729254	      1.14890044	      3.16609897	     24.31745664	     30.04754702	     26.97101982	     -6.90676209	      7.33797727	    -10.07481836	      0.00000000	      0.00000000	      0.00000000	      0.00000000	     -0.00171561	      0.00000000	      0.00000000	      0.00000000	      0.00000000	      0.00000000	      0.00000000	      0.00000000	      2.11014620	    -10.52585764	      3.90279685	    -16.25778330
